<svg width="15" height="10" viewBox="0 0 15 10" fill="none" xmlns="http://www.w3.org/2000/svg">
<path id="Vector" d="M6.52686 9.5442L0.322569 2.21629C-0.40963 1.35276 0.185444 4.91521e-07 1.29668 4.91521e-07H13.7053C13.9539 -0.000219837 14.1974 0.0736372 14.4065 0.212727C14.6157 0.351818 14.7816 0.550245 14.8843 0.784246C14.9871 1.01825 15.0225 1.27791 14.9861 1.53212C14.9497 1.78634 14.8433 2.02434 14.6794 2.21762L8.47507 9.54287C8.35365 9.68644 8.20391 9.80152 8.0359 9.88036C7.86788 9.95921 7.68549 10 7.50097 10C7.31644 10 7.13405 9.95921 6.96603 9.88036C6.79802 9.80152 6.64828 9.68644 6.52686 9.54287V9.5442Z" fill="black"/>
</svg>
