<svg width="204" height="140" viewBox="0 0 204 140" fill="none" xmlns="http://www.w3.org/2000/svg">
<g id="minutes-not-hours-48afd64860a3e72b36d5986738c77eb4 1">
<path id="Vector" d="M110 2H106V6H110V2Z" fill="#06C5AC"/>
<path id="Vector_2" d="M66 2H62V6H66V2Z" fill="#06C5AC"/>
<path id="Vector_3" d="M74 2H70V6H74V2Z" fill="#06C5AC"/>
<path id="Vector_4" d="M83 2H79V6H83V2Z" fill="#06C5AC"/>
<path id="Vector_5" d="M92 2H88V6H92V2Z" fill="#06C5AC"/>
<path id="Vector_6" d="M101 2H97V6H101V2Z" fill="#06C5AC"/>
<path id="Vector_7" d="M57 11H53V15H57V11Z" fill="#06C5AC"/>
<path id="Vector_8" d="M57 20H53V24H57V20Z" fill="#06C5AC"/>
<path id="Vector_9" d="M57 29H53V33H57V29Z" fill="#06C5AC"/>
<path id="Vector_10" d="M57 38H53V42H57V38Z" fill="#06C5AC"/>
<path id="Vector_11" d="M157.892 49L154 61.6666L158.108 63L162 50.3334L157.892 49Z" fill="#06C5AC"/>
<path id="Vector_12" d="M165 0H161V8H165V0Z" fill="#06C5AC"/>
<path id="Vector_13" d="M165 18H161V26H165V18Z" fill="#06C5AC"/>
<path id="Vector_14" d="M176 11H168V15H176V11Z" fill="#06C5AC"/>
<path id="Vector_15" d="M158 11H150V15H158V11Z" fill="#06C5AC"/>
<path id="Vector_16" d="M139.369 123H68.6315C66.8727 123 65.186 122.292 63.9423 121.032C62.6986 119.771 62 118.062 62 116.28V17.7201C62 15.9378 62.6986 14.2285 63.9423 12.9683C65.186 11.708 66.8727 11 68.6315 11H139.369C141.127 11 142.814 11.708 144.058 12.9683C145.301 14.2285 146 15.9378 146 17.7201V39.6273H141.579V17.7201C141.579 17.1259 141.346 16.5562 140.932 16.1361C140.517 15.716 139.955 15.48 139.369 15.48H68.6315C68.0453 15.48 67.483 15.716 67.0685 16.1361C66.6539 16.5562 66.4209 17.1259 66.4209 17.7201V116.28C66.4209 116.874 66.6539 117.444 67.0685 117.864C67.483 118.284 68.0453 118.52 68.6315 118.52H139.369C139.955 118.52 140.517 118.284 140.932 117.864C141.346 117.444 141.579 116.874 141.579 116.28V71.4801H146V116.28C146 118.062 145.301 119.771 144.058 121.032C142.814 122.292 141.127 123 139.369 123Z" fill="#06C5AC"/>
<path id="Vector_17" d="M145 63H141V67H145V63Z" fill="#06C5AC"/>
<path id="Vector_18" d="M57 47H53V51H57V47Z" fill="#06C5AC"/>
<path id="Vector_19" d="M57 56H53V60H57V56Z" fill="#06C5AC"/>
<path id="Vector_20" d="M57 65H53V69H57V65Z" fill="#06C5AC"/>
<path id="Vector_21" d="M57 74H53V78H57V74Z" fill="#06C5AC"/>
<path id="Vector_22" d="M57 83H53V87H57V83Z" fill="#06C5AC"/>
<path id="Vector_23" d="M57 2H53V6H57V2Z" fill="#06C5AC"/>
<path id="Vector_24" d="M99 22H73V26H99V22Z" fill="#06C5AC"/>
<path id="Vector_25" d="M110 22H106V26H110V22Z" fill="#06C5AC"/>
<path id="Vector_26" d="M119 22H115V26H119V22Z" fill="#06C5AC"/>
<path id="Vector_27" d="M95 34H73V38H95V34Z" fill="#06C5AC"/>
<path id="Vector_28" d="M166.147 63C165.259 63.0009 164.377 62.8653 163.531 62.598L116.599 48.0607L107 34.8631L121.897 31L168.762 45.5373C170.787 46.1707 172.52 47.5139 173.646 49.3233C174.772 51.1327 175.217 53.2886 174.901 55.4005C174.584 57.5121 173.527 59.4397 171.921 60.8339C170.315 62.2281 168.267 62.9965 166.147 63ZM119.304 44.2196L164.839 58.3327C165.262 58.4653 165.703 58.533 166.147 58.5337C167.207 58.5321 168.231 58.1479 169.034 57.4508C169.837 56.7537 170.366 55.7898 170.524 54.734C170.682 53.6781 170.459 52.6001 169.896 51.6954C169.333 50.7907 168.467 50.1191 167.455 49.8024L121.809 35.6447L114.449 37.5428L119.304 44.2196Z" fill="#06C5AC"/>
<path id="Vector_29" d="M120 76H81V80H120V76Z" fill="#06C5AC"/>
<path id="Vector_30" d="M130.483 112.999H121.626C120.451 112.999 119.325 112.523 118.494 111.675C117.664 110.828 117.197 109.678 117.197 108.48V101.701H121.626V108.48H130.483V90.0184C130.347 89.3092 130.034 88.6476 129.575 88.0977C127.361 84.9116 124.261 80.4149 124.261 80.4149L124.017 80.0759L123.906 79.6466C123.906 79.6466 121.692 70.3369 120.651 66.631C120.469 66.2734 120.186 65.9794 119.839 65.7861C119.492 65.5931 119.096 65.5096 118.703 65.5463H89.1199C88.7246 65.5147 88.3285 65.6029 87.9819 65.7999C87.6352 65.9968 87.3534 66.2937 87.1715 66.6536C86.1751 70.156 83.9386 79.5337 83.9164 79.6466V80.0534L83.6506 80.4149C83.6506 80.4149 80.5065 84.9343 78.3364 88.0977C77.8691 88.6424 77.5553 89.3062 77.4286 90.0184V108.48H86.2857C86.2857 108.48 86.2857 108.344 86.2857 108.096V101.701H90.7144V108.096C90.7666 108.721 90.6907 109.35 90.4916 109.943C90.2927 110.537 89.9748 111.081 89.5581 111.543C89.1416 112.004 88.6356 112.372 88.0722 112.622C87.5088 112.873 86.9004 113.001 86.2857 112.999H77.4286C76.2541 112.999 75.1276 112.523 74.2971 111.675C73.4666 110.828 73 109.678 73 108.48V90.0184C73.0805 88.3687 73.6694 86.787 74.6829 85.499C76.4985 82.8327 79.1114 79.2625 79.7978 78.1327C80.2628 76.212 82.0121 68.5743 83.0086 65.3656C83.4485 64.0572 84.2885 62.9275 85.4044 62.1424C86.5205 61.3575 87.8539 60.9586 89.2086 61.0044H118.791C120.15 60.9529 121.489 61.352 122.607 62.1424C123.725 62.9328 124.561 64.0717 124.991 65.3882C125.921 68.7551 127.737 76.2345 128.18 78.11C128.977 79.2398 131.501 82.8327 133.317 85.5217C134.333 86.8081 134.923 88.3907 135 90.0411V108.48C135 109.081 134.883 109.676 134.655 110.23C134.426 110.785 134.092 111.287 133.672 111.708C133.251 112.129 132.752 112.46 132.205 112.681C131.657 112.903 131.072 113.011 130.483 112.999Z" fill="#06C5AC"/>
<path id="Vector_31" d="M126 99H75V103H126V99Z" fill="#06C5AC"/>
<path id="Vector_32" d="M83 90H75V94H83V90Z" fill="#06C5AC"/>
<path id="Vector_33" d="M132 90H124V94H132V90Z" fill="#06C5AC"/>
<path id="Vector_34" d="M107 90H99V94H107V90Z" fill="#06C5AC"/>
<path id="Vector_35" opacity="0.15" d="M101.5 140C157.557 140 203 132.613 203 123.5C203 114.387 157.557 107 101.5 107C45.4431 107 0 114.387 0 123.5C0 132.613 45.4431 140 101.5 140Z" fill="#06AEAA"/>
</g>
</svg>
