<svg width="196" height="130" viewBox="0 0 196 130" fill="none" xmlns="http://www.w3.org/2000/svg">
<g id="shop-your-way-f575579b12ccf6daf39539dab242c0e2 1">
<path id="Vector" d="M64.5001 114C61.4345 114 58.4376 113.091 55.8887 111.388C53.3398 109.685 51.3531 107.264 50.1798 104.432C49.0068 101.599 48.6997 98.4828 49.2978 95.4761C49.8959 92.4695 51.3722 89.7076 53.5399 87.5399C55.7077 85.3721 58.4695 83.8959 61.4761 83.2979C64.4829 82.6997 67.5994 83.0067 70.4316 84.18C73.2638 85.3531 75.6847 87.3398 77.3878 89.8887C79.0911 92.4376 80 95.4344 80 98.5C80 102.611 78.3669 106.553 75.4602 109.46C72.5534 112.367 68.6109 114 64.5001 114ZM64.5001 87.4285C62.3102 87.4285 60.1698 88.0779 58.3491 89.2944C56.5284 90.5111 55.1094 92.2401 54.2715 94.2632C53.4334 96.2862 53.2142 98.5124 53.6413 100.66C54.0685 102.808 55.1229 104.78 56.6714 106.329C58.2198 107.877 60.1924 108.932 62.3401 109.359C64.4877 109.786 66.7139 109.567 68.7369 108.729C70.7599 107.891 72.4891 106.472 73.7056 104.651C74.9221 102.83 75.5714 100.69 75.5714 98.5C75.5714 95.5638 74.405 92.7477 72.3287 90.6714C70.2524 88.5951 67.4364 87.4285 64.5001 87.4285Z" fill="#FF6400"/>
<path id="Vector_2" d="M131.5 114C128.434 114 125.438 113.091 122.889 111.388C120.34 109.685 118.353 107.264 117.18 104.432C116.007 101.599 115.7 98.4828 116.298 95.4761C116.896 92.4695 118.372 89.7076 120.54 87.5399C122.708 85.3721 125.469 83.8959 128.476 83.2979C131.483 82.6997 134.599 83.0067 137.432 84.18C140.264 85.3531 142.685 87.3398 144.388 89.8887C146.091 92.4376 147 95.4344 147 98.5C147 102.611 145.367 106.553 142.46 109.46C139.553 112.367 135.611 114 131.5 114ZM131.5 87.4285C129.31 87.4285 127.17 88.0779 125.349 89.2944C123.528 90.5111 122.109 92.2401 121.271 94.2632C120.433 96.2862 120.214 98.5124 120.641 100.66C121.069 102.808 122.123 104.78 123.671 106.329C125.22 107.877 127.192 108.932 129.34 109.359C131.488 109.786 133.714 109.567 135.737 108.729C137.76 107.891 139.489 106.472 140.705 104.651C141.922 102.83 142.571 100.69 142.571 98.5C142.571 95.5638 141.405 92.7477 139.329 90.6714C137.252 88.5951 134.436 87.4285 131.5 87.4285Z" fill="#FF6400"/>
<path id="Vector_3" d="M67 96H63V100H67V96Z" fill="#FF6400"/>
<path id="Vector_4" d="M133 96H129V100H133V96Z" fill="#FF6400"/>
<path id="Vector_5" d="M152.949 102.982H143.946V98.5314H152.949C153.839 98.6134 154.735 98.4973 155.575 98.1907C156.416 97.8842 157.179 97.3952 157.81 96.7581C158.442 96.121 158.927 95.3516 159.231 94.5044C159.535 93.6572 159.65 92.753 159.569 91.8558C159.569 80.9966 152.442 60.7025 135.296 60.7025H123.204L108.199 41.7882C107.373 40.7474 106.326 39.907 105.134 39.3293C103.942 38.7515 102.637 38.4512 101.315 38.4504H64.9727C63.7481 38.4507 62.537 38.7082 61.4162 39.2062C60.2956 39.7043 59.29 40.432 58.4634 41.3431C52.5751 47.6519 47.2994 54.5146 42.7083 61.8375C41.2315 64.315 40.4675 67.1581 40.5017 70.0485V91.8558C40.5017 93.6261 41.1991 95.3241 42.4407 96.5761C43.682 97.828 45.3659 98.5314 47.1215 98.5314H51.7111V102.982H47.0332C44.1072 102.982 41.3008 101.81 39.2318 99.723C37.1627 97.6365 36.0003 94.8065 36.0003 91.8558V70.0485C35.9799 66.3218 37.005 62.6654 38.9571 59.5009C43.6932 51.931 49.1391 44.8371 55.2196 38.3169C56.467 36.964 57.9758 35.883 59.6532 35.1405C61.3305 34.398 63.1409 34.01 64.9727 34H101.315C103.298 34.0011 105.256 34.4518 107.044 35.3183C108.831 36.1849 110.402 37.4455 111.642 39.0067L125.323 56.2522H135.296C154.008 56.2522 163.982 76.9245 163.982 91.8558C164.069 93.3397 163.843 94.8253 163.319 96.2148C162.795 97.6043 161.985 98.8662 160.943 99.9173C159.901 100.968 158.649 101.785 157.271 102.313C155.894 102.841 154.42 103.069 152.949 102.982Z" fill="#FF6400"/>
<path id="Vector_6" d="M117 99H105V103H117V99Z" fill="#FF6400"/>
<path id="Vector_7" d="M86 99H78V103H86V99Z" fill="#FF6400"/>
<path id="Vector_8" d="M92 110H41V114H92V110Z" fill="#FF6400"/>
<path id="Vector_9" d="M150 110H109V114H150V110Z" fill="#FF6400"/>
<path id="Vector_10" d="M102.574 104.999H89.404C88.7926 105.009 88.186 104.889 87.6227 104.648C87.0595 104.407 86.5523 104.05 86.1334 103.599C85.7337 103.176 85.4272 102.673 85.2342 102.121C85.0413 101.57 84.9662 100.983 85.014 100.4L86.2872 82.8949L90.6772 83.2282L89.4259 100.711L102.596 100.556L98.3597 36.2887L102.75 36L106.986 100.422C107.034 101.005 106.959 101.592 106.766 102.143C106.573 102.695 106.266 103.199 105.867 103.621C105.443 104.071 104.932 104.426 104.365 104.663C103.797 104.9 103.187 105.015 102.574 104.999Z" fill="#FF6400"/>
<path id="Vector_11" d="M86.2212 74L86 77.7413L89.7788 78L90 74.2588L86.2212 74Z" fill="#FF6400"/>
<path id="Vector_12" d="M89.2686 36L87 71.6904L91.7313 72L94 36.3096L89.2686 36Z" fill="#FF6400"/>
<path id="Vector_13" d="M90 63H61.8081C60.2657 62.9941 58.7885 62.376 57.6999 61.2808C56.6113 60.1856 56 58.7026 56 57.1568C55.9964 56.2121 56.2267 55.2813 56.6702 54.4478L61.6295 45L65.5836 47.082L60.6242 56.5522C60.5182 56.7357 60.464 56.9448 60.4679 57.1568C60.4649 57.335 60.4974 57.5121 60.5634 57.6776C60.6293 57.8433 60.7277 57.9939 60.8525 58.1212C60.9771 58.2482 61.1259 58.3492 61.29 58.418C61.454 58.4869 61.6303 58.5224 61.8081 58.5224H90V63Z" fill="#FF6400"/>
<path id="Vector_14" d="M112 58H102V62H112V58Z" fill="#FF6400"/>
<path id="Vector_15" d="M46 85H38V89H46V85Z" fill="#FF6400"/>
<path id="Vector_16" d="M160 83H149V87H160V83Z" fill="#FF6400"/>
<path id="Vector_17" d="M158 78H138.399C137.828 78.0005 137.263 77.8877 136.735 77.6683C136.208 77.4489 135.729 77.1272 135.327 76.7217L132.255 73.6667C131.478 72.8272 131.032 71.7339 131 70.59C131.006 69.1091 131.596 67.6906 132.641 66.6435C133.687 65.5964 135.103 65.0057 136.582 65H152.808V69.3333H136.582C136.417 69.3333 136.254 69.3657 136.102 69.4289C135.949 69.4921 135.811 69.5847 135.694 69.7014C135.578 69.818 135.486 69.9566 135.422 70.109C135.359 70.2616 135.327 70.425 135.327 70.59L138.399 73.6667H158V78Z" fill="#FF6400"/>
<path id="Vector_18" d="M104.483 37L100.253 35.4962C100.415 35.0114 100.498 34.5038 100.5 33.9926C100.5 32.8021 100.026 31.6604 99.182 30.8186C98.3379 29.9768 97.1935 29.5039 96 29.5039C94.8065 29.5039 93.662 29.9768 92.8182 30.8186C91.9741 31.6604 91.5 32.8021 91.5 33.9926C91.5018 34.4964 91.5854 34.9967 91.7475 35.4738L87.5174 36.9776C87.079 35.7444 86.9162 34.4305 87.0404 33.1279C87.1645 31.8254 87.5726 30.5656 88.2359 29.4369C88.8994 28.3082 89.8022 27.3378 90.881 26.5935C91.9598 25.8493 93.1886 25.3495 94.4816 25.1286C95.7744 24.908 97.1 24.9718 98.3656 25.3157C99.6313 25.6596 100.806 26.2753 101.808 27.1196C102.81 27.964 103.615 29.0167 104.166 30.2039C104.718 31.3911 105.002 32.6841 105 33.9926C104.998 35.017 104.823 36.0336 104.483 37Z" fill="#FF6400"/>
<path id="Vector_19" d="M70.1892 37C68.0096 35.3198 66.3998 32.9768 65.5886 30.3035C64.7771 27.6303 64.8054 24.7623 65.6692 22.1063C66.5329 19.4505 68.1885 17.1416 70.4008 15.507C72.6131 13.8725 75.2699 12.9953 77.9947 13C84.3297 13 90.9675 17.2444 97 24.9555L93.5839 27.711C88.5892 21.1777 82.9027 17.4445 77.9947 17.4445C76.1794 17.4445 74.4103 18.0314 72.9376 19.1222C71.4651 20.2132 70.3638 21.7526 69.7898 23.5224C69.2158 25.2923 69.1981 27.2029 69.7394 28.9836C70.2806 30.7645 71.3533 32.3251 72.8054 33.4445L70.1892 37Z" fill="#FF6400"/>
<path id="Vector_20" d="M113.613 40H108.258V35.5001H113.613C115.98 35.5001 118.25 34.5518 119.923 32.8639C121.597 31.1761 122.538 28.8869 122.538 26.5001C122.538 24.1131 121.597 21.8239 119.923 20.136C118.25 18.4482 115.98 17.5001 113.613 17.5001C108.548 17.5001 102.679 21.28 97.5253 27.895L94 25.105C100.225 17.2975 107.075 13 113.613 13C117.163 13 120.568 14.4223 123.079 16.954C125.589 19.4858 127 22.9196 127 26.5001C127 30.0804 125.589 33.5142 123.079 36.0459C120.568 38.5777 117.163 40 113.613 40Z" fill="#FF6400"/>
<path id="Vector_21" d="M148 0H144V8H148V0Z" fill="#FF6400"/>
<path id="Vector_22" d="M148 18H144V26H148V18Z" fill="#FF6400"/>
<path id="Vector_23" d="M159 11H151V15H159V11Z" fill="#FF6400"/>
<path id="Vector_24" d="M141 11H133V15H141V11Z" fill="#FF6400"/>
<path id="Vector_25" opacity="0.15" d="M97.5 130C151.348 130 195 122.837 195 114C195 105.163 151.348 98 97.5 98C43.6522 98 0 105.163 0 114C0 122.837 43.6522 130 97.5 130Z" fill="#FF6400"/>
</g>
</svg>
