<svg width="182" height="128" viewBox="0 0 182 128" fill="none" xmlns="http://www.w3.org/2000/svg">
<g id="transparent-pricing-4d7899553551b3a2db95d346ac20062f 1" clip-path="url(#clip0_131_553)">
<path id="Vector" d="M71.4999 111C69.6211 111 67.7844 110.413 66.2221 109.315C64.6598 108.216 63.4422 106.654 62.7232 104.827C62.0041 103 61.816 100.989 62.1825 99.0491C62.549 97.1093 63.4539 95.3274 64.7825 93.9289C66.1111 92.5303 67.8039 91.578 69.6466 91.1921C71.4895 90.8063 73.3996 91.0043 75.1356 91.7612C76.8714 92.518 78.355 93.7997 79.399 95.4443C80.4428 97.0887 81 99.0222 81 101C81 103.652 79.999 106.196 78.2176 108.071C76.4359 109.946 74.0195 111 71.4999 111ZM71.4999 94.9999C70.3727 94.9999 69.2707 95.3519 68.3333 96.011C67.3959 96.6704 66.6653 97.6075 66.2339 98.7038C65.8024 99.8001 65.6897 101.007 65.9096 102.17C66.1294 103.334 66.6724 104.403 67.4694 105.243C68.2666 106.082 69.2824 106.653 70.3879 106.885C71.4936 107.116 72.6397 106.997 73.6813 106.543C74.7228 106.089 75.6131 105.32 76.2394 104.333C76.8657 103.347 77.2 102.187 77.2 101C77.2 99.4087 76.5994 97.8826 75.5305 96.7573C74.4616 95.6321 73.0118 94.9999 71.4999 94.9999Z" fill="#00ADEE"/>
<path id="Vector_2" d="M109.5 111C107.621 111 105.784 110.413 104.222 109.315C102.66 108.216 101.442 106.654 100.723 104.827C100.004 103 99.8159 100.989 100.183 99.0491C100.549 97.1093 101.454 95.3274 102.783 93.9289C104.111 92.5303 105.804 91.578 107.647 91.1921C109.489 90.8063 111.4 91.0043 113.135 91.7612C114.871 92.518 116.355 93.7997 117.399 95.4443C118.443 97.0887 119 99.0222 119 101C119 103.652 117.999 106.196 116.217 108.071C114.436 109.946 112.02 111 109.5 111ZM109.5 94.9999C108.373 94.9999 107.271 95.3519 106.333 96.011C105.396 96.6704 104.665 97.6075 104.234 98.7038C103.802 99.8001 103.69 101.007 103.91 102.17C104.129 103.334 104.672 104.403 105.469 105.243C106.267 106.082 107.282 106.653 108.388 106.885C109.494 107.116 110.64 106.997 111.681 106.543C112.723 106.089 113.613 105.32 114.239 104.333C114.866 103.347 115.2 102.187 115.2 101C115.2 99.4087 114.599 97.8826 113.53 96.7573C112.462 95.6321 111.012 94.9999 109.5 94.9999Z" fill="#00ADEE"/>
<path id="Vector_3" d="M140 107H136V111H140V107Z" fill="#00ADEE"/>
<path id="Vector_4" d="M133 107H129V111H133V107Z" fill="#00ADEE"/>
<path id="Vector_5" d="M124 107H54V111H124V107Z" fill="#00ADEE"/>
<path id="Vector_6" d="M50 107H46V111H50V107Z" fill="#00ADEE"/>
<path id="Vector_7" d="M110 95H67.7369C65.9934 94.999 64.302 94.3716 62.9404 93.2204C61.579 92.0693 60.6284 90.4631 60.2447 88.6655L48.5264 33.6443C48.4287 33.1863 48.184 32.7782 47.8337 32.4894C47.4834 32.2007 47.0494 32.0492 46.6052 32.0607H37V28H46.6052C47.9145 27.9984 49.1853 28.468 50.2084 29.3315C51.2316 30.195 51.9459 31.4011 52.2339 32.7509L63.9908 87.7721C64.1826 88.671 64.6579 89.474 65.3386 90.0497C66.0194 90.6252 66.8651 90.939 67.7369 90.9393H110V95Z" fill="#00ADEE"/>
<path id="Vector_8" d="M111.673 86H69.3244V81.909H111.673C112.483 81.9099 113.272 81.6395 113.929 81.1365C114.585 80.6333 115.076 79.9232 115.331 79.1068L125.148 47.7704C125.177 47.5602 125.177 47.3465 125.148 47.1363C125.148 46.5939 124.945 46.0736 124.584 45.6899C124.223 45.3064 123.734 45.0908 123.223 45.0908H52V41H123.223C124.137 40.9997 125.038 41.2297 125.851 41.6712C126.665 42.1127 127.369 42.7532 127.904 43.5398C128.44 44.3266 128.792 45.2371 128.932 46.1965C129.072 47.1559 128.996 48.137 128.709 49.059L118.988 80.375C118.482 82.0115 117.502 83.4363 116.188 84.4464C114.875 85.4565 113.295 86.0002 111.673 86Z" fill="#00ADEE"/>
<path id="Vector_9" d="M124 51H94V55H124V51Z" fill="#00ADEE"/>
<path id="Vector_10" d="M91 51H87V55H91V51Z" fill="#00ADEE"/>
<path id="Vector_11" d="M83 51H79V55H83V51Z" fill="#00ADEE"/>
<path id="Vector_12" d="M99.9897 26L78 40.6172L80.0103 44L102 29.3828L99.9897 26Z" fill="#00ADEE"/>
<path id="Vector_13" d="M87.004 30L84 32.16L86.9962 37L90 34.84L87.004 30Z" fill="#00ADEE"/>
<path id="Vector_14" d="M67.7935 42H64V38.0006C64.006 36.5644 64.3382 35.1507 64.9683 33.8773C65.5986 32.6041 66.5088 31.5085 67.6228 30.6818L88.6575 15.2844C89.8841 14.4491 91.3132 14.0047 92.7735 14.0046C93.413 14.014 94.0496 14.1012 94.6702 14.2645C97.8188 15.0644 105.728 17.684 106.696 18.0039C109.503 16.1642 111.551 14.7645 113.903 13.1647L115.8 11.8249C117.426 10.6674 119.338 10.035 121.3 10.0052C122.606 9.95791 123.905 10.2318 125.094 10.8051C128.772 12.9598 131.998 15.8781 134.577 19.3837C135.492 20.6256 135.992 22.1508 136 23.723C135.901 25.6791 135.125 27.5291 133.819 28.9221C131.808 30.9218 128.129 34.3213 125.511 36.7408L123.045 33.7214C125.682 31.3217 129.229 28.0622 131.163 26.0627C131.747 25.426 132.114 24.6031 132.206 23.723C132.208 23.0549 131.994 22.406 131.6 21.8833C129.401 18.8452 126.647 16.3023 123.501 14.4045C122.582 14.0621 121.599 13.9543 120.633 14.0898C119.667 14.2254 118.745 14.6005 117.943 15.1844L116.046 16.5041C113.619 18.1639 111.513 19.6036 108.592 21.5234C107.733 22.0136 106.727 22.1353 105.785 21.8633C105.633 21.8633 97.0221 18.9637 93.8736 18.1639C93.5276 18.0626 93.1705 18.0089 92.8114 18.0039C92.0961 18.0081 91.395 18.2154 90.782 18.6039L69.6902 34.0014C69.1066 34.4722 68.6326 35.077 68.3039 35.7701C67.9752 36.4631 67.8008 37.2258 67.7935 38.0006V42Z" fill="#00ADEE"/>
<path id="Vector_15" d="M120.487 28C119.949 28.0009 119.417 27.8739 118.93 27.6279C118.442 27.3819 118.011 27.023 117.667 26.5766L116 24.5997L118.656 21.9308L120.487 23.9078C122.795 21.9308 128.399 16 128.454 16L131 18.8468C130.744 19.1039 124.938 25.0939 122.63 27.1103C122.038 27.6745 121.277 27.9902 120.487 28Z" fill="#00ADEE"/>
<path id="Vector_16" d="M127.64 45L124.32 42.663C124.669 42.1212 124.891 41.5018 124.969 40.8543C125.047 40.2066 124.978 39.549 124.768 38.9343C124.558 38.3195 124.213 37.7648 123.76 37.3144C123.307 36.8641 122.759 36.5309 122.161 36.3415C121.562 36.1521 120.929 36.1119 120.313 36.2238C119.697 36.3358 119.115 36.5972 118.613 36.9867C118.111 37.3761 117.703 37.8831 117.423 38.4666C117.143 39.0501 116.998 39.6941 117 40.3466C117.003 40.8236 117.084 41.2965 117.24 41.7448L113.46 43.1221C113.157 42.2307 113.002 41.2924 113 40.3466C113 38.133 113.843 36.01 115.343 34.4447C116.843 32.8793 118.878 32 121 32C123.122 32 125.156 32.8793 126.657 34.4447C128.157 36.01 129 38.133 129 40.3466C129.008 42.0056 128.534 43.6282 127.64 45Z" fill="#00ADEE"/>
<path id="Vector_17" d="M47 0H43V8H47V0Z" fill="#00ADEE"/>
<path id="Vector_18" d="M47 16H43V24H47V16Z" fill="#00ADEE"/>
<path id="Vector_19" d="M56 10H48V14H56V10Z" fill="#00ADEE"/>
<path id="Vector_20" d="M41 10H33V14H41V10Z" fill="#00ADEE"/>
<path id="Vector_21" d="M139 75H135V83H139V75Z" fill="#00ADEE"/>
<path id="Vector_22" d="M139 91H135V99H139V91Z" fill="#00ADEE"/>
<path id="Vector_23" d="M148 85H140V89H148V85Z" fill="#00ADEE"/>
<path id="Vector_24" d="M133 85H125V89H133V85Z" fill="#00ADEE"/>
<path id="Vector_25" opacity="0.15" d="M92.5 128C143.034 128 184 121.06 184 112.5C184 103.94 143.034 97 92.5 97C41.9659 97 1 103.94 1 112.5C1 121.06 41.9659 128 92.5 128Z" fill="#00ADEE"/>
</g>
<defs>
<clipPath id="clip0_131_553">
<rect width="182" height="128" fill="white"/>
</clipPath>
</defs>
</svg>
